<svg xmlns="http://www.w3.org/2000/svg" xmlns:v="https://svgstorm.com"
viewBox = "0 0 96 96"
width="96"
height="96">
<g fill="None" fill-opacity="0.0" stroke="#000000" stroke-opacity="0.00" stroke-width="0.3"><path d="
M 0.00 96.00 
L 96.00 96.00
L 96.00 0.00
L 0.00 0.00
L 0.00 96.00
M 57.00 12.00 
C 58.59 12.27 60.38 11.92 62.00 12.00
C 63.97 12.09 64.57 12.37 66.00 13.00
C 69.31 14.46 69.90 17.42 72.00 19.00
C 79.63 18.39 77.86 24.85 80.00 29.00
C 80.51 29.99 82.35 30.80 83.00 32.00
C 83.76 33.40 83.77 34.14 84.00 36.00
C 84.24 37.98 83.90 38.91 84.00 41.00
C 84.13 43.85 85.33 46.86 85.00 50.00 C 84.67 53.14 81.02 53.85 80.00 56.00
C 78.67 58.82 80.01 63.48 76.75 65.75 C 73.48 68.01 70.79 69.06 67.00 70.00
C 62.41 71.14 58.63 70.88 54.00 70.00
C 48.60 68.98 42.76 68.69 37.00 69.00
C 39.65 70.57 44.52 72.84 44.00 77.00
C 39.52 76.60 33.39 76.24 32.00 71.00
C 27.73 73.99 20.97 85.32 16.00 86.00
C 12.82 86.44 9.56 83.18 10.00 80.00
C 10.69 75.01 22.07 68.19 25.00 64.00
C 20.79 57.98 16.93 51.99 18.00 44.00
C 22.59 45.50 24.14 50.84 27.00 54.00
C 26.62 50.34 27.92 46.25 26.00 43.00
C 24.42 37.88 24.53 34.91 25.00 30.00
C 25.93 20.36 27.20 20.58 35.00 16.00
C 39.66 13.26 41.32 13.06 47.00 12.00
C 51.89 11.09 52.57 11.25 57.00 12.00 Z"/>
</g>
<g fill="None" fill-opacity="0.0" stroke="#FE85AE" stroke-opacity="0.96" stroke-width="0.3"><path d="
M 47.00 12.00 
C 41.71 16.75 44.98 33.71 56.07 27.07 C 67.16 20.44 45.04 8.83 51.00 23.00
C 42.69 20.54 52.51 8.27 58.00 15.00
C 58.53 13.72 57.03 13.14 57.00 12.00
C 52.57 11.25 51.89 11.09 47.00 12.00
M 52.00 24.00 
C 55.90 22.14 50.37 22.00 51.00 19.00
C 56.16 14.54 57.89 25.31 52.00 24.00 Z"/>
</g>
<g fill="None" fill-opacity="0.0" stroke="#F8B7CD" stroke-opacity="0.97" stroke-width="0.3"><path d="
M 35.00 16.00 
C 34.06 18.42 43.73 22.83 39.22 28.22 C 34.72 33.61 28.76 29.17 31.00 24.00
C 36.24 35.36 39.07 17.24 30.78 22.78 C 22.49 28.32 36.12 36.25 40.00 30.00
C 38.69 37.66 27.40 35.81 25.00 30.00
C 24.53 34.91 24.42 37.88 26.00 43.00
C 26.87 43.93 31.43 44.59 32.00 46.00
C 32.65 40.35 39.03 36.42 43.75 41.25 C 48.47 46.08 42.67 53.76 37.00 48.00
C 38.17 55.74 50.48 51.39 47.00 44.00
C 52.69 48.82 45.01 57.14 39.00 56.00
C 39.85 57.43 39.16 60.53 40.00 62.00
C 40.19 62.33 42.70 64.78 43.00 65.00
C 45.70 66.99 49.50 65.59 52.00 67.00
C 42.64 47.67 80.13 56.47 67.00 70.00
C 70.79 69.06 73.48 68.01 76.75 65.75 C 80.01 63.48 78.67 58.82 80.00 56.00
C 71.77 58.31 66.48 49.90 70.00 43.00
C 75.26 41.71 82.80 45.93 77.00 52.00
C 85.93 49.32 78.49 39.33 72.00 41.00
C 75.76 36.04 80.62 41.58 84.00 41.00
C 83.90 38.91 84.24 37.98 84.00 36.00
C 83.73 35.58 80.76 36.08 80.26 34.74 C 79.75 33.40 81.65 31.12 83.00 32.00
C 82.35 30.80 80.51 29.99 80.00 29.00
C 78.60 36.14 63.47 40.52 63.01 28.99 C 62.55 17.47 81.62 24.61 70.00 32.00
C 78.27 32.67 77.75 18.52 69.00 21.00
C 69.24 19.33 71.85 20.83 72.00 19.00
C 69.90 17.42 69.31 14.46 66.00 13.00
C 68.12 16.26 59.25 16.64 62.00 12.00
C 60.38 11.92 58.59 12.27 57.00 12.00
C 57.03 13.14 58.53 13.72 58.00 15.00
C 52.51 8.27 42.69 20.54 51.00 23.00
C 45.04 8.83 67.16 20.44 56.07 27.07 C 44.98 33.71 41.71 16.75 47.00 12.00
C 41.32 13.06 39.66 13.26 35.00 16.00
M 65.00 18.00 
C 66.85 18.82 65.61 22.71 63.30 21.64 C 61.00 20.58 62.91 17.07 65.00 18.00
M 49.00 30.00 
C 50.85 30.82 49.61 34.71 47.30 33.64 C 45.00 32.58 46.91 29.07 49.00 30.00
M 60.00 33.00 
C 69.79 34.77 67.29 51.52 55.93 48.07 C 44.57 44.63 49.03 31.02 60.00 33.00
M 31.00 36.00 
C 32.85 36.82 31.61 40.71 29.30 39.64 C 27.00 38.58 28.91 35.07 31.00 36.00
M 59.00 50.00 
C 60.85 50.82 59.61 54.71 57.30 53.64 C 55.00 52.58 56.91 49.07 59.00 50.00
M 53.00 52.00 
C 54.85 52.82 53.61 56.71 51.30 55.64 C 49.00 54.58 50.91 51.07 53.00 52.00
M 75.00 62.00 
C 76.85 62.82 75.61 66.71 73.30 65.64 C 71.00 64.58 72.91 61.07 75.00 62.00 Z"/>
</g>
<g fill="None" fill-opacity="0.0" stroke="#F51A60" stroke-opacity="0.92" stroke-width="0.3"><path d="
M 66.00 13.00 
C 64.57 12.37 63.97 12.09 62.00 12.00
C 59.25 16.64 68.12 16.26 66.00 13.00 Z"/>
</g>
<g fill="None" fill-opacity="0.0" stroke="#FE83AD" stroke-opacity="0.95" stroke-width="0.3"><path d="
M 25.00 30.00 
C 27.40 35.81 38.69 37.66 40.00 30.00
C 36.12 36.25 22.49 28.32 30.78 22.78 C 39.07 17.24 36.24 35.36 31.00 24.00
C 28.76 29.17 34.72 33.61 39.22 28.22 C 43.73 22.83 34.06 18.42 35.00 16.00
C 27.20 20.58 25.93 20.36 25.00 30.00 Z"/>
</g>
<g fill="None" fill-opacity="0.0" stroke="#F8B6CD" stroke-opacity="1.00" stroke-width="0.3"><path d="
M 52.00 24.00 
C 57.89 25.31 56.16 14.54 51.00 19.00
C 50.37 22.00 55.90 22.14 52.00 24.00 Z"/>
</g>
<g fill="None" fill-opacity="0.0" stroke="#F40D5E" stroke-opacity="1.00" stroke-width="0.3"><path d="
M 65.00 18.00 
C 62.91 17.07 61.00 20.58 63.30 21.64 C 65.61 22.71 66.85 18.82 65.00 18.00 Z"/>
</g>
<g fill="None" fill-opacity="0.0" stroke="#FE84AD" stroke-opacity="0.95" stroke-width="0.3"><path d="
M 80.00 29.00 
C 77.86 24.85 79.63 18.39 72.00 19.00
C 71.85 20.83 69.24 19.33 69.00 21.00
C 77.75 18.52 78.27 32.67 70.00 32.00
C 81.62 24.61 62.55 17.47 63.01 28.99 C 63.47 40.52 78.60 36.14 80.00 29.00
M 68.00 31.00 
C 63.46 21.54 77.95 27.08 68.00 31.00 Z"/>
</g>
<g fill="None" fill-opacity="0.0" stroke="#F9B2CA" stroke-opacity="1.00" stroke-width="0.3"><path d="
M 68.00 31.00 
C 77.95 27.08 63.46 21.54 68.00 31.00 Z"/>
</g>
<g fill="None" fill-opacity="0.0" stroke="#F40D5E" stroke-opacity="1.00" stroke-width="0.3"><path d="
M 49.00 30.00 
C 46.91 29.07 45.00 32.58 47.30 33.64 C 49.61 34.71 50.85 30.82 49.00 30.00 Z"/>
</g>
<g fill="None" fill-opacity="0.0" stroke="#F51D61" stroke-opacity="0.92" stroke-width="0.3"><path d="
M 84.00 36.00 
C 83.77 34.14 83.76 33.40 83.00 32.00
C 81.65 31.12 79.75 33.40 80.26 34.74 C 80.76 36.08 83.73 35.58 84.00 36.00 Z"/>
</g>
<g fill="None" fill-opacity="0.0" stroke="#FE86AF" stroke-opacity="1.00" stroke-width="0.3"><path d="
M 60.00 33.00 
C 49.03 31.02 44.57 44.63 55.93 48.07 C 67.29 51.52 69.79 34.77 60.00 33.00
M 61.00 43.00 
C 61.82 35.08 49.23 40.43 54.00 46.00
C 44.82 43.83 60.56 29.63 61.92 40.08 C 63.27 50.54 50.08 36.64 61.00 43.00 Z"/>
</g>
<g fill="None" fill-opacity="0.0" stroke="#F40D5E" stroke-opacity="1.00" stroke-width="0.3"><path d="
M 31.00 36.00 
C 28.91 35.07 27.00 38.58 29.30 39.64 C 31.61 40.71 32.85 36.82 31.00 36.00 Z"/>
</g>
<g fill="None" fill-opacity="0.0" stroke="#F8B4CB" stroke-opacity="1.00" stroke-width="0.3"><path d="
M 61.00 43.00 
C 50.08 36.64 63.27 50.54 61.92 40.08 C 60.56 29.63 44.82 43.83 54.00 46.00
C 49.23 40.43 61.82 35.08 61.00 43.00 Z"/>
</g>
<g fill="None" fill-opacity="0.0" stroke="#FC85AC" stroke-opacity="1.00" stroke-width="0.3"><path d="
M 32.00 46.00 
C 31.85 47.31 32.06 48.68 32.00 50.00
C 32.37 51.46 35.77 54.38 37.00 55.00
C 36.83 54.91 39.31 56.08 39.00 56.00
C 45.01 57.14 52.69 48.82 47.00 44.00
C 50.48 51.39 38.17 55.74 37.00 48.00
C 42.67 53.76 48.47 46.08 43.75 41.25 C 39.03 36.42 32.65 40.35 32.00 46.00
M 42.00 43.00 
C 44.70 44.53 42.03 49.64 38.78 47.22 C 35.53 44.79 39.02 41.31 42.00 43.00 Z"/>
</g>
<g fill="None" fill-opacity="0.0" stroke="#FE8AB1" stroke-opacity="0.96" stroke-width="0.3"><path d="
M 80.00 56.00 
C 81.02 53.85 84.67 53.14 85.00 50.00 C 85.33 46.86 84.13 43.85 84.00 41.00
C 80.62 41.58 75.76 36.04 72.00 41.00
C 78.49 39.33 85.93 49.32 77.00 52.00
C 82.80 45.93 75.26 41.71 70.00 43.00
C 66.48 49.90 71.77 58.31 80.00 56.00 Z"/>
</g>
<g fill="None" fill-opacity="0.0" stroke="#689E39" stroke-opacity="0.82" stroke-width="0.3"><path d="
M 25.00 64.00 
C 25.16 63.77 26.00 64.00 26.00 64.00
C 26.50 64.00 27.00 64.00 27.00 64.00
C 30.64 62.03 31.83 53.86 32.00 50.00
C 32.06 48.68 31.85 47.31 32.00 46.00
C 31.43 44.59 26.87 43.93 26.00 43.00
C 27.92 46.25 26.62 50.34 27.00 54.00
C 24.14 50.84 22.59 45.50 18.00 44.00
C 16.93 51.99 20.79 57.98 25.00 64.00 Z"/>
</g>
<g fill="None" fill-opacity="0.0" stroke="#F9B2CA" stroke-opacity="1.00" stroke-width="0.3"><path d="
M 42.00 43.00 
C 39.02 41.31 35.53 44.79 38.78 47.22 C 42.03 49.64 44.70 44.53 42.00 43.00 Z"/>
</g>
<g fill="None" fill-opacity="0.0" stroke="#3E6F23" stroke-opacity="1.00" stroke-width="0.3"><path d="
M 27.00 64.00 
C 28.41 66.02 30.04 67.63 32.00 69.00
C 35.11 67.21 39.30 64.79 43.00 65.00
C 42.70 64.78 40.19 62.33 40.00 62.00
C 37.21 61.30 34.73 64.11 32.00 64.00
C 34.24 61.27 33.99 56.88 37.00 55.00
C 35.77 54.38 32.37 51.46 32.00 50.00
C 31.83 53.86 30.64 62.03 27.00 64.00 Z"/>
</g>
<g fill="None" fill-opacity="0.0" stroke="#F40D5E" stroke-opacity="1.00" stroke-width="0.3"><path d="
M 59.00 50.00 
C 56.91 49.07 55.00 52.58 57.30 53.64 C 59.61 54.71 60.85 50.82 59.00 50.00 Z"/>
</g>
<g fill="None" fill-opacity="0.0" stroke="#F40D5E" stroke-opacity="1.00" stroke-width="0.3"><path d="
M 53.00 52.00 
C 50.91 51.07 49.00 54.58 51.30 55.64 C 53.61 56.71 54.85 52.82 53.00 52.00 Z"/>
</g>
<g fill="None" fill-opacity="0.0" stroke="#6A9C3C" stroke-opacity="1.00" stroke-width="0.3"><path d="
M 40.00 62.00 
C 39.16 60.53 39.85 57.43 39.00 56.00
C 39.31 56.08 36.83 54.91 37.00 55.00
C 33.99 56.88 34.24 61.27 32.00 64.00
C 34.73 64.11 37.21 61.30 40.00 62.00 Z"/>
</g>
<g fill="None" fill-opacity="0.0" stroke="#FD85AC" stroke-opacity="0.97" stroke-width="0.3"><path d="
M 52.00 67.00 
C 52.30 67.63 53.51 69.69 54.00 70.00
C 58.63 70.88 62.41 71.14 67.00 70.00
C 80.13 56.47 42.64 47.67 52.00 67.00
M 63.00 65.00 
C 62.13 56.04 52.09 64.06 55.00 69.00
C 47.45 65.98 60.99 50.96 63.75 61.25 C 66.51 71.54 51.47 59.86 63.00 65.00 Z"/>
</g>
<g fill="None" fill-opacity="0.0" stroke="#F8B2CA" stroke-opacity="1.00" stroke-width="0.3"><path d="
M 63.00 65.00 
C 51.47 59.86 66.51 71.54 63.75 61.25 C 60.99 50.96 47.45 65.98 55.00 69.00
C 52.09 64.06 62.13 56.04 63.00 65.00 Z"/>
</g>
<g fill="None" fill-opacity="0.0" stroke="#F40D5E" stroke-opacity="1.00" stroke-width="0.3"><path d="
M 75.00 62.00 
C 72.91 61.07 71.00 64.58 73.30 65.64 C 75.61 66.71 76.85 62.82 75.00 62.00 Z"/>
</g>
<g fill="None" fill-opacity="0.0" stroke="#FFD6A1" stroke-opacity="0.22" stroke-width="0.3"><path d="
M 10.00 80.00 
C 10.39 78.15 16.61 74.42 18.00 73.00
C 18.94 72.04 20.10 70.90 21.00 70.00
C 21.89 69.11 23.20 67.86 24.00 67.00
C 24.73 66.22 25.27 64.66 26.00 64.00
C 26.00 64.00 25.16 63.77 25.00 64.00
C 22.07 68.19 10.69 75.01 10.00 80.00 Z"/>
</g>
<g fill="None" fill-opacity="0.0" stroke="#FEB74F" stroke-opacity="1.00" stroke-width="0.3"><path d="
M 24.00 67.00 
C 25.01 66.92 29.07 71.04 29.00 72.00
C 29.78 71.27 31.34 70.73 32.00 70.00
C 32.00 69.50 32.00 69.00 32.00 69.00
C 30.04 67.63 28.41 66.02 27.00 64.00
C 27.00 64.00 26.50 64.00 26.00 64.00
C 25.27 64.66 24.73 66.22 24.00 67.00 Z"/>
</g>
<g fill="None" fill-opacity="0.0" stroke="#689E38" stroke-opacity="0.75" stroke-width="0.3"><path d="
M 32.00 69.00 
C 32.00 69.00 32.00 69.50 32.00 70.00
C 32.00 70.50 32.00 71.00 32.00 71.00
C 33.39 76.24 39.52 76.60 44.00 77.00
C 44.52 72.84 39.65 70.57 37.00 69.00
C 42.76 68.69 48.60 68.98 54.00 70.00
C 53.51 69.69 52.30 67.63 52.00 67.00
C 49.50 65.59 45.70 66.99 43.00 65.00
C 39.30 64.79 35.11 67.21 32.00 69.00 Z"/>
</g>
<g fill="None" fill-opacity="0.0" stroke="#FEDCA9" stroke-opacity="0.99" stroke-width="0.3"><path d="
M 21.00 70.00 
C 20.92 71.01 25.04 75.07 26.00 75.00
C 26.89 74.11 28.14 72.80 29.00 72.00
C 29.07 71.04 25.01 66.92 24.00 67.00
C 23.20 67.86 21.89 69.11 21.00 70.00 Z"/>
</g>
<g fill="None" fill-opacity="0.0" stroke="#FFB74F" stroke-opacity="1.00" stroke-width="0.3"><path d="
M 18.00 73.00 
C 19.11 73.00 23.00 76.94 23.00 78.00
C 23.96 77.06 25.10 75.90 26.00 75.00
C 25.04 75.07 20.92 71.01 21.00 70.00
C 20.10 70.90 18.94 72.04 18.00 73.00 Z"/>
</g>
<g fill="None" fill-opacity="0.0" stroke="#FFD7A0" stroke-opacity="0.22" stroke-width="0.3"><path d="
M 29.00 72.00 
C 28.14 72.80 26.89 74.11 26.00 75.00
C 25.10 75.90 23.96 77.06 23.00 78.00
C 21.53 79.44 17.78 85.62 16.00 86.00
C 20.97 85.32 27.73 73.99 32.00 71.00
C 32.00 71.00 32.00 70.50 32.00 70.00
C 31.34 70.73 29.78 71.27 29.00 72.00 Z"/>
</g>
<g fill="None" fill-opacity="0.0" stroke="#FEDFB0" stroke-opacity="0.96" stroke-width="0.3"><path d="
M 10.00 80.00 
C 9.56 83.18 12.82 86.44 16.00 86.00
C 17.78 85.62 21.53 79.44 23.00 78.00
C 23.00 76.94 19.11 73.00 18.00 73.00
C 16.61 74.42 10.39 78.15 10.00 80.00 Z"/>
</g>
<g fill="#000000" fill-opacity="0.00" stroke="None">
<path d="
M 0.00 96.00 
L 96.00 96.00
L 96.00 0.00
L 0.00 0.00
L 0.00 96.00
M 57.00 12.00 
C 58.59 12.27 60.38 11.92 62.00 12.00
C 63.97 12.09 64.57 12.37 66.00 13.00
C 69.31 14.46 69.90 17.42 72.00 19.00
C 79.63 18.39 77.86 24.85 80.00 29.00
C 80.51 29.99 82.35 30.80 83.00 32.00
C 83.76 33.40 83.77 34.14 84.00 36.00
C 84.24 37.98 83.90 38.91 84.00 41.00
C 84.13 43.85 85.33 46.86 85.00 50.00 C 84.67 53.14 81.02 53.85 80.00 56.00
C 78.67 58.82 80.01 63.48 76.75 65.75 C 73.48 68.01 70.79 69.06 67.00 70.00
C 62.41 71.14 58.63 70.88 54.00 70.00
C 48.60 68.98 42.76 68.69 37.00 69.00
C 39.65 70.57 44.52 72.84 44.00 77.00
C 39.52 76.60 33.39 76.24 32.00 71.00
C 27.73 73.99 20.97 85.32 16.00 86.00
C 12.82 86.44 9.56 83.18 10.00 80.00
C 10.69 75.01 22.07 68.19 25.00 64.00
C 20.79 57.98 16.93 51.99 18.00 44.00
C 22.59 45.50 24.14 50.84 27.00 54.00
C 26.62 50.34 27.92 46.25 26.00 43.00
C 24.42 37.88 24.53 34.91 25.00 30.00
C 25.93 20.36 27.20 20.58 35.00 16.00
C 39.66 13.26 41.32 13.06 47.00 12.00
C 51.89 11.09 52.57 11.25 57.00 12.00 Z"/>
</g>
<g fill="#FE85AE" fill-opacity="0.96" stroke="None">
<path d="
M 47.00 12.00 
C 41.71 16.75 44.98 33.71 56.07 27.07 C 67.16 20.44 45.04 8.83 51.00 23.00
C 42.69 20.54 52.51 8.27 58.00 15.00
C 58.53 13.72 57.03 13.14 57.00 12.00
C 52.57 11.25 51.89 11.09 47.00 12.00
M 52.00 24.00 
C 55.90 22.14 50.37 22.00 51.00 19.00
C 56.16 14.54 57.89 25.31 52.00 24.00 Z"/>
</g>
<g fill="#F8B7CD" fill-opacity="0.97" stroke="None">
<path d="
M 35.00 16.00 
C 34.06 18.42 43.73 22.83 39.22 28.22 C 34.72 33.61 28.76 29.17 31.00 24.00
C 36.24 35.36 39.07 17.24 30.78 22.78 C 22.49 28.32 36.12 36.25 40.00 30.00
C 38.69 37.66 27.40 35.81 25.00 30.00
C 24.53 34.91 24.42 37.88 26.00 43.00
C 26.87 43.93 31.43 44.59 32.00 46.00
C 32.65 40.35 39.03 36.42 43.75 41.25 C 48.47 46.08 42.67 53.76 37.00 48.00
C 38.17 55.74 50.48 51.39 47.00 44.00
C 52.69 48.82 45.01 57.14 39.00 56.00
C 39.85 57.43 39.16 60.53 40.00 62.00
C 40.19 62.33 42.70 64.78 43.00 65.00
C 45.70 66.99 49.50 65.59 52.00 67.00
C 42.64 47.67 80.13 56.47 67.00 70.00
C 70.79 69.06 73.48 68.01 76.75 65.75 C 80.01 63.48 78.67 58.82 80.00 56.00
C 71.77 58.31 66.48 49.90 70.00 43.00
C 75.26 41.71 82.80 45.93 77.00 52.00
C 85.93 49.32 78.49 39.33 72.00 41.00
C 75.76 36.04 80.62 41.58 84.00 41.00
C 83.90 38.91 84.24 37.98 84.00 36.00
C 83.73 35.58 80.76 36.08 80.26 34.74 C 79.75 33.40 81.65 31.12 83.00 32.00
C 82.35 30.80 80.51 29.99 80.00 29.00
C 78.60 36.14 63.47 40.52 63.01 28.99 C 62.55 17.47 81.62 24.61 70.00 32.00
C 78.27 32.67 77.75 18.52 69.00 21.00
C 69.24 19.33 71.85 20.83 72.00 19.00
C 69.90 17.42 69.31 14.46 66.00 13.00
C 68.12 16.26 59.25 16.64 62.00 12.00
C 60.38 11.92 58.59 12.27 57.00 12.00
C 57.03 13.14 58.53 13.72 58.00 15.00
C 52.51 8.27 42.69 20.54 51.00 23.00
C 45.04 8.83 67.16 20.44 56.07 27.07 C 44.98 33.71 41.71 16.75 47.00 12.00
C 41.32 13.06 39.66 13.26 35.00 16.00
M 65.00 18.00 
C 66.85 18.82 65.61 22.71 63.30 21.64 C 61.00 20.58 62.91 17.07 65.00 18.00
M 49.00 30.00 
C 50.85 30.82 49.61 34.71 47.30 33.64 C 45.00 32.58 46.91 29.07 49.00 30.00
M 60.00 33.00 
C 69.79 34.77 67.29 51.52 55.93 48.07 C 44.57 44.63 49.03 31.02 60.00 33.00
M 31.00 36.00 
C 32.85 36.82 31.61 40.71 29.30 39.64 C 27.00 38.58 28.91 35.07 31.00 36.00
M 59.00 50.00 
C 60.85 50.82 59.61 54.71 57.30 53.64 C 55.00 52.58 56.91 49.07 59.00 50.00
M 53.00 52.00 
C 54.85 52.82 53.61 56.71 51.30 55.64 C 49.00 54.58 50.91 51.07 53.00 52.00
M 75.00 62.00 
C 76.85 62.82 75.61 66.71 73.30 65.64 C 71.00 64.58 72.91 61.07 75.00 62.00 Z"/>
</g>
<g fill="#F51A60" fill-opacity="0.92" stroke="None">
<path d="
M 66.00 13.00 
C 64.57 12.37 63.97 12.09 62.00 12.00
C 59.25 16.64 68.12 16.26 66.00 13.00 Z"/>
</g>
<g fill="#FE83AD" fill-opacity="0.95" stroke="None">
<path d="
M 25.00 30.00 
C 27.40 35.81 38.69 37.66 40.00 30.00
C 36.12 36.25 22.49 28.32 30.78 22.78 C 39.07 17.24 36.24 35.36 31.00 24.00
C 28.76 29.17 34.72 33.61 39.22 28.22 C 43.73 22.83 34.06 18.42 35.00 16.00
C 27.20 20.58 25.93 20.36 25.00 30.00 Z"/>
</g>
<g fill="#F8B6CD" fill-opacity="1.00" stroke="None">
<path d="
M 52.00 24.00 
C 57.89 25.31 56.16 14.54 51.00 19.00
C 50.37 22.00 55.90 22.14 52.00 24.00 Z"/>
</g>
<g fill="#F40D5E" fill-opacity="1.00" stroke="None">
<path d="
M 65.00 18.00 
C 62.91 17.07 61.00 20.58 63.30 21.64 C 65.61 22.71 66.85 18.82 65.00 18.00 Z"/>
</g>
<g fill="#FE84AD" fill-opacity="0.95" stroke="None">
<path d="
M 80.00 29.00 
C 77.86 24.85 79.63 18.39 72.00 19.00
C 71.85 20.83 69.24 19.33 69.00 21.00
C 77.75 18.52 78.27 32.67 70.00 32.00
C 81.62 24.61 62.55 17.47 63.01 28.99 C 63.47 40.52 78.60 36.14 80.00 29.00
M 68.00 31.00 
C 63.46 21.54 77.95 27.08 68.00 31.00 Z"/>
</g>
<g fill="#F9B2CA" fill-opacity="1.00" stroke="None">
<path d="
M 68.00 31.00 
C 77.95 27.08 63.46 21.54 68.00 31.00 Z"/>
</g>
<g fill="#F40D5E" fill-opacity="1.00" stroke="None">
<path d="
M 49.00 30.00 
C 46.91 29.07 45.00 32.58 47.30 33.64 C 49.61 34.71 50.85 30.82 49.00 30.00 Z"/>
</g>
<g fill="#F51D61" fill-opacity="0.92" stroke="None">
<path d="
M 84.00 36.00 
C 83.77 34.14 83.76 33.40 83.00 32.00
C 81.65 31.12 79.75 33.40 80.26 34.74 C 80.76 36.08 83.73 35.58 84.00 36.00 Z"/>
</g>
<g fill="#FE86AF" fill-opacity="1.00" stroke="None">
<path d="
M 60.00 33.00 
C 49.03 31.02 44.57 44.63 55.93 48.07 C 67.29 51.52 69.79 34.77 60.00 33.00
M 61.00 43.00 
C 61.82 35.08 49.23 40.43 54.00 46.00
C 44.82 43.83 60.56 29.63 61.92 40.08 C 63.27 50.54 50.08 36.64 61.00 43.00 Z"/>
</g>
<g fill="#F40D5E" fill-opacity="1.00" stroke="None">
<path d="
M 31.00 36.00 
C 28.91 35.07 27.00 38.58 29.30 39.64 C 31.61 40.71 32.85 36.82 31.00 36.00 Z"/>
</g>
<g fill="#F8B4CB" fill-opacity="1.00" stroke="None">
<path d="
M 61.00 43.00 
C 50.08 36.64 63.27 50.54 61.92 40.08 C 60.56 29.63 44.82 43.83 54.00 46.00
C 49.23 40.43 61.82 35.08 61.00 43.00 Z"/>
</g>
<g fill="#FC85AC" fill-opacity="1.00" stroke="None">
<path d="
M 32.00 46.00 
C 31.85 47.31 32.06 48.68 32.00 50.00
C 32.37 51.46 35.77 54.38 37.00 55.00
C 36.83 54.91 39.31 56.08 39.00 56.00
C 45.01 57.14 52.69 48.82 47.00 44.00
C 50.48 51.39 38.17 55.74 37.00 48.00
C 42.67 53.76 48.47 46.08 43.75 41.25 C 39.03 36.42 32.65 40.35 32.00 46.00
M 42.00 43.00 
C 44.70 44.53 42.03 49.64 38.78 47.22 C 35.53 44.79 39.02 41.31 42.00 43.00 Z"/>
</g>
<g fill="#FE8AB1" fill-opacity="0.96" stroke="None">
<path d="
M 80.00 56.00 
C 81.02 53.85 84.67 53.14 85.00 50.00 C 85.33 46.86 84.13 43.85 84.00 41.00
C 80.62 41.58 75.76 36.04 72.00 41.00
C 78.49 39.33 85.93 49.32 77.00 52.00
C 82.80 45.93 75.26 41.71 70.00 43.00
C 66.48 49.90 71.77 58.31 80.00 56.00 Z"/>
</g>
<g fill="#689E39" fill-opacity="0.82" stroke="None">
<path d="
M 25.00 64.00 
C 25.16 63.77 26.00 64.00 26.00 64.00
C 26.50 64.00 27.00 64.00 27.00 64.00
C 30.64 62.03 31.83 53.86 32.00 50.00
C 32.06 48.68 31.85 47.31 32.00 46.00
C 31.43 44.59 26.87 43.93 26.00 43.00
C 27.92 46.25 26.62 50.34 27.00 54.00
C 24.14 50.84 22.59 45.50 18.00 44.00
C 16.93 51.99 20.79 57.98 25.00 64.00 Z"/>
</g>
<g fill="#F9B2CA" fill-opacity="1.00" stroke="None">
<path d="
M 42.00 43.00 
C 39.02 41.31 35.53 44.79 38.78 47.22 C 42.03 49.64 44.70 44.53 42.00 43.00 Z"/>
</g>
<g fill="#3E6F23" fill-opacity="1.00" stroke="None">
<path d="
M 27.00 64.00 
C 28.41 66.02 30.04 67.63 32.00 69.00
C 35.11 67.21 39.30 64.79 43.00 65.00
C 42.70 64.78 40.19 62.33 40.00 62.00
C 37.21 61.30 34.73 64.11 32.00 64.00
C 34.24 61.27 33.99 56.88 37.00 55.00
C 35.77 54.38 32.37 51.46 32.00 50.00
C 31.83 53.86 30.64 62.03 27.00 64.00 Z"/>
</g>
<g fill="#F40D5E" fill-opacity="1.00" stroke="None">
<path d="
M 59.00 50.00 
C 56.91 49.07 55.00 52.58 57.30 53.64 C 59.61 54.71 60.85 50.82 59.00 50.00 Z"/>
</g>
<g fill="#F40D5E" fill-opacity="1.00" stroke="None">
<path d="
M 53.00 52.00 
C 50.91 51.07 49.00 54.58 51.30 55.64 C 53.61 56.71 54.85 52.82 53.00 52.00 Z"/>
</g>
<g fill="#6A9C3C" fill-opacity="1.00" stroke="None">
<path d="
M 40.00 62.00 
C 39.16 60.53 39.85 57.43 39.00 56.00
C 39.31 56.08 36.83 54.91 37.00 55.00
C 33.99 56.88 34.24 61.27 32.00 64.00
C 34.73 64.11 37.21 61.30 40.00 62.00 Z"/>
</g>
<g fill="#FD85AC" fill-opacity="0.97" stroke="None">
<path d="
M 52.00 67.00 
C 52.30 67.63 53.51 69.69 54.00 70.00
C 58.63 70.88 62.41 71.14 67.00 70.00
C 80.13 56.47 42.64 47.67 52.00 67.00
M 63.00 65.00 
C 62.13 56.04 52.09 64.06 55.00 69.00
C 47.45 65.98 60.99 50.96 63.75 61.25 C 66.51 71.54 51.47 59.86 63.00 65.00 Z"/>
</g>
<g fill="#F8B2CA" fill-opacity="1.00" stroke="None">
<path d="
M 63.00 65.00 
C 51.47 59.86 66.51 71.54 63.75 61.25 C 60.99 50.96 47.45 65.98 55.00 69.00
C 52.09 64.06 62.13 56.04 63.00 65.00 Z"/>
</g>
<g fill="#F40D5E" fill-opacity="1.00" stroke="None">
<path d="
M 75.00 62.00 
C 72.91 61.07 71.00 64.58 73.30 65.64 C 75.61 66.71 76.85 62.82 75.00 62.00 Z"/>
</g>
<g fill="#FFD6A1" fill-opacity="0.22" stroke="None">
<path d="
M 10.00 80.00 
C 10.39 78.15 16.61 74.42 18.00 73.00
C 18.94 72.04 20.10 70.90 21.00 70.00
C 21.89 69.11 23.20 67.86 24.00 67.00
C 24.73 66.22 25.27 64.66 26.00 64.00
C 26.00 64.00 25.16 63.77 25.00 64.00
C 22.07 68.19 10.69 75.01 10.00 80.00 Z"/>
</g>
<g fill="#FEB74F" fill-opacity="1.00" stroke="None">
<path d="
M 24.00 67.00 
C 25.01 66.92 29.07 71.04 29.00 72.00
C 29.78 71.27 31.34 70.73 32.00 70.00
C 32.00 69.50 32.00 69.00 32.00 69.00
C 30.04 67.63 28.41 66.02 27.00 64.00
C 27.00 64.00 26.50 64.00 26.00 64.00
C 25.27 64.66 24.73 66.22 24.00 67.00 Z"/>
</g>
<g fill="#689E38" fill-opacity="0.75" stroke="None">
<path d="
M 32.00 69.00 
C 32.00 69.00 32.00 69.50 32.00 70.00
C 32.00 70.50 32.00 71.00 32.00 71.00
C 33.39 76.24 39.52 76.60 44.00 77.00
C 44.52 72.84 39.65 70.57 37.00 69.00
C 42.76 68.69 48.60 68.98 54.00 70.00
C 53.51 69.69 52.30 67.63 52.00 67.00
C 49.50 65.59 45.70 66.99 43.00 65.00
C 39.30 64.79 35.11 67.21 32.00 69.00 Z"/>
</g>
<g fill="#FEDCA9" fill-opacity="0.99" stroke="None">
<path d="
M 21.00 70.00 
C 20.92 71.01 25.04 75.07 26.00 75.00
C 26.89 74.11 28.14 72.80 29.00 72.00
C 29.07 71.04 25.01 66.92 24.00 67.00
C 23.20 67.86 21.89 69.11 21.00 70.00 Z"/>
</g>
<g fill="#FFB74F" fill-opacity="1.00" stroke="None">
<path d="
M 18.00 73.00 
C 19.11 73.00 23.00 76.94 23.00 78.00
C 23.96 77.06 25.10 75.90 26.00 75.00
C 25.04 75.07 20.92 71.01 21.00 70.00
C 20.10 70.90 18.94 72.04 18.00 73.00 Z"/>
</g>
<g fill="#FFD7A0" fill-opacity="0.22" stroke="None">
<path d="
M 29.00 72.00 
C 28.14 72.80 26.89 74.11 26.00 75.00
C 25.10 75.90 23.96 77.06 23.00 78.00
C 21.53 79.44 17.78 85.62 16.00 86.00
C 20.97 85.32 27.73 73.99 32.00 71.00
C 32.00 71.00 32.00 70.50 32.00 70.00
C 31.34 70.73 29.78 71.27 29.00 72.00 Z"/>
</g>
<g fill="#FEDFB0" fill-opacity="0.96" stroke="None">
<path d="
M 10.00 80.00 
C 9.56 83.18 12.82 86.44 16.00 86.00
C 17.78 85.62 21.53 79.44 23.00 78.00
C 23.00 76.94 19.11 73.00 18.00 73.00
C 16.61 74.42 10.39 78.15 10.00 80.00 Z"/>
</g>
</svg>